# AST/ASF file generated using VICON BodyLanguage
# -----------------------------------------------
:version 1.10
:name VICON
:units
  mass 1.0
  length 0.45
  angle deg
:documentation
   .ast/.asf automatically generated from VICON data using
   VICON BodyBuilder and BodyLanguage model FoxedUp or BRILLIANT.MOD
:root
   order TX TY TZ RX RY RZ
   axis XYZ
   position 0 0 0  
   orientation 0 0 0 
:bonedata
  begin
     id 1 
     name lhipjoint
     direction 0.655637 -0.713449 0.247245 
     length 2.52691 
     axis 0 0 0  XYZ
  end
  begin
     id 2 
     name lfemur
     direction 0.34202 -0.939693 0  
     length 7.59371  
     axis 0 0 20  XYZ
    dof rx ry rz
    limits (-160.0 20.0)
           (-70.0 70.0)
           (-60.0 70.0)
  end
  begin
     id 3 
     name ltibia
     direction 0.34202 -0.939693 0   
     length 7.28717   
     axis 0 0 20   XYZ
    dof rx
    limits (-10.0 170.0)
  end
  begin
     id 4 
     name lfoot
     direction 0.0886837 -0.243657 0.965798   
     length 2.2218   
     axis -90 7.62852e-016 20   XYZ
    dof rx rz
    limits (-45.0 90.0)
           (-70.0 20.0)
  end
  begin
     id 5 
     name ltoes
     direction 1.53547e-011 -4.22004e-011 1   
     length 1.11249   
     axis -90 7.62852e-016 20   XYZ
    dof rx
    limits (-90.0 20.0)
  end
  begin
     id 6 
     name rhipjoint
     direction -0.645062 -0.722004 0.250209   
     length 2.49697  
     axis 0 0 0  XYZ 
  end
  begin
     id 7 
     name rfemur
     direction -0.34202 -0.939693 0   
     length 7.58734   
     axis 0 0 -20   XYZ
    dof rx ry rz
    limits (-160.0 20.0)
           (-70.0 70.0)
           (-70.0 60.0)
  end
  begin
     id 8 
     name rtibia
     direction -0.34202 -0.939693 0   
     length 7.21538   
     axis 0 0 -20   XYZ
    dof rx
    limits (-10.0 170.0)
 end
 begin
     id 9 
     name rfoot
     direction -0.102907 -0.282735 0.953662   
     length 2.23735  
     axis -90 -7.62852e-016 -20   XYZ
    dof rx rz
    limits (-45.0 90.0)
           (-20.0 70.0)
  end
  begin
     id 10 
     name rtoes
     direction -1.5354e-011 -4.21751e-011 1   
     length 1.11569   
     axis -90 -7.62852e-016 -20   XYZ
    dof rx
    limits (-90.0 20.0)
  end
  begin
     id 11 
     name lowerback
     direction 0.00952301 0.997604 -0.0685217   
     length 2.05943   
     axis 0 0 0   XYZ
    dof rx ry rz
    limits (-20.0 45.0)
           (-30.0 30.0)
           (-30.0 30.0)
  end
  begin
     id 12 
     name upperback
     direction 0.00494399 0.999577 -0.0286701   
     length 2.06523   
     axis 0 0 0   XYZ
    dof rx ry rz
    limits (-20.0 45.0)
           (-30.0 30.0)
           (-30.0 30.0)
  end
  begin
     id 13 
     name thorax
     direction 0.000729686 0.999992 0.00388603   
     length 2.06807   
     axis 0 0 0   XYZ
    dof rx ry rz
    limits (-20.0 45.0)
           (-30.0 30.0)
           (-30.0 30.0)
  end
  begin
     id 14 
     name lowerneck
     direction 0.00452882 0.995459 0.0950816   
     length 1.57426   
     axis 0 0 0   XYZ
    dof rx ry rz
    limits (-20.0 45.0)
           (-30.0 30.0)
           (-30.0 30.0)
  end
  begin
     id 15 
     name upperneck
     direction 0.021922 0.997711 -0.0639762   
     length 1.56399   
     axis 0 0 0   XYZ
    dof rx ry rz
    limits (-20.0 45.0)
           (-30.0 30.0)
           (-30.0 30.0)
  end
  begin
     id 16
     name head
     direction 0.008024 0.999444 -0.0323691  
     length 1.6265  
     axis 0 0 0   XYZ
    dof rx ry rz
    limits (-20.0 45.0)
           (-30.0 30.0)
           (-30.0 30.0)
  end
  begin
     id 17 
     name lclavicle
     direction 0.967826 0.247107 -0.0474446  
     length 3.6598  
     axis 0 0 0   XYZ
    dof ry rz
    limits (-20.0 10.0)
           (0.0 20.0)
  end
  begin
     id 18 
     name lhumerus
     direction 1 -4.48971e-011 -2.90544e-027   
     length 4.86513   
     axis 180 -30 -90   XYZ
    dof rx ry rz
    limits (-60.0 90.0)
           (-90.0 90.0)
           (-90.0 90.0)
  end
  begin
     id 19
     name lradius
     direction 1 -4.48958e-011 1.79638e-026   
     length 3.35554   
     axis 180 -30 -90   XYZ
    dof rx
    limits (-10.0 170.0)
  end
  begin
     id 20
     name lwrist
     direction 1 -4.48952e-011 3.34345e-026   
     length 1.67777   
     axis -2.22354e-014 90 90   XYZ
    dof ry
    limits (-180.0 0.0)
 end
  begin
     id 21 
     name lhand
     direction 1 -4.49055e-011 6.6869e-026   
     length 0.661175   
     axis -4.26681e-014 90 90   XYZ
    dof rx rz
    limits (-90.0 90.0)
           (-45.0 45.0)
  end
  begin
     id 22 
     name lfingers
     direction 1 -4.48731e-011 1.33738e-025   
     length 0.533057   
     axis -8.53362e-014 90 90   XYZ
    dof rx
    limits (0.0 90.0)
  end
  begin
     id 23
     name lthumb
     direction 0.707107 -6.35005e-011 0.707107   
     length 0.765366   
     axis -90 45 2.85299e-015   XYZ
    dof rx rz
    limits (-45.0 45.0)
           (-45.0 45.0)
  end
  begin
     id 24 
     name rclavicle
     direction -0.973174 0.211421 -0.0907389   
     length 3.59444  
     axis 0 0 0   XYZ 
    dof ry rz
    limits (-10.0 20.0)
           (-20.0 0.0)
  end
  begin
     id 25 
     name rhumerus
     direction -1 -4.48964e-011 1.56311e-027  
     length 5.02649   
     axis 180 30 90   XYZ
    dof rx ry rz
    limits (-90.0 60.0)
           (-90.0 90.0)
           (-90.0 90.0)
  end
  begin
     id 26 
     name rradius
     direction -1 -4.48948e-011 2.01724e-026   
     length 3.36431   
     axis 180 30 90   XYZ
    dof rx
    limits (-10.0 170.0)
  end
  begin
     id 27 
     name rwrist
     direction -1 -4.49008e-011 3.34345e-026   
     length 1.68216   
     axis -2.22354e-014 -90 -90   XYZ
    dof ry
    limits (-180.0 0.0)
  end
  begin
     id 28
     name rhand
     direction -1 -4.49013e-011 6.6869e-026   
     length 0.730406   
     axis -4.26681e-014 -90 -90   XYZ
    dof rx rz
    limits (-90.0 90.0)
           (-45.0 45.0)
  end
  begin
     id 29
     name rfingers
     direction -1 -4.48867e-011 1.33738e-025   
     length 0.588872   
     axis -8.53362e-014 -90 -90   XYZ
    dof rx
    limits (0.0 90.0)
  end
  begin
     id 30
     name rthumb
     direction -0.707107 -6.34907e-011 0.707107   
     length 0.845506   
     axis -90 -45 -2.85299e-015   XYZ
    dof rx rz
    limits (-45.0 45.0)
           (-45.0 45.0)
  end
:hierarchy
  begin
    root lhipjoint rhipjoint lowerback
    lhipjoint lfemur
    lfemur ltibia
    ltibia lfoot
    lfoot ltoes
    rhipjoint rfemur
    rfemur rtibia
    rtibia rfoot
    rfoot rtoes
    lowerback upperback
    upperback thorax
    thorax lowerneck lclavicle rclavicle
    lowerneck upperneck
    upperneck head
    lclavicle lhumerus
    lhumerus lradius
    lradius lwrist
    lwrist lhand lthumb
    lhand lfingers
    rclavicle rhumerus
    rhumerus rradius
    rradius rwrist
    rwrist rhand rthumb
    rhand rfingers
  end

#!OML:ASF H:\Terrain\Patient Classification 1\Takeo\Monday\TakeoMonday.ASF
:FULLY-SPECIFIED
:DEGREES
65
root 9.55743 13.6483 -2.03947 28.5238 1.9245 3.40935
lowerback 30.9499 -2.74995 1.87347
upperback 10.6681 -2.91339 -1.02296
thorax -5.0143 -1.3197 -1.23084
lowerneck -10.472 -0.00496811 -0.564224
upperneck -31.175 -0.523739 -2.022
head -8.06996 -0.0271846 -0.576188
rclavicle -1.80894e-014 1.25731e-014
rhumerus -70.5685 -1.07587 -70.333
rradius 23.9489
rwrist -14.1829
rhand -35.4616 27.1115
rfingers 7.12502
rthumb -8.59027 -2.69376
lclavicle -1.80894e-014 1.25731e-014
lhumerus -78.2719 0.496829 66.3832
lradius 29.2135
lwrist 27.0413
lhand -26.6585 16.7647
lfingers 7.12502
lthumb -0.0902459 46.7444
rfemur -83.0398 0.0675352 18.9882
rtibia 93.8407
rfoot -34.0958 -8.45668
rtoes -3.15951
lfemur -80.4823 -5.99463 -26.4147
ltibia 90.559
lfoot -33.2504 11.4142
ltoes -2.94035
66
root 9.565 13.5247 -2.03161 28.6705 2.16276 3.29371
lowerback 31.157 -2.91442 2.20408
upperback 10.8571 -3.01187 -0.992541
thorax -4.90886 -1.35813 -1.3516
lowerneck -10.6103 0.107137 -0.296946
upperneck -31.3224 -0.479329 -2.45737
head -8.1011 0.00121169 -0.774872
rclavicle -8.54774e-015 -3.13086e-015
rhumerus -70.0746 -2.34977 -69.5453
rradius 23.3412
rwrist -14.4164
rhand -35.4041 27.8015
rfingers 7.12502
rthumb -8.53472 -2.00605
lclavicle -8.54774e-015 -3.13086e-015
lhumerus -78.1786 1.36564 66.8201
lradius 29.7694
lwrist 27.6692
lhand -25.875 16.7345
lfingers 7.12502
lthumb 0.666516 46.7132
rfemur -83.9907 0.0457921 19.165
rtibia 95.2931
rfoot -34.5717 -8.60436
rtoes -3.41402
lfemur -81.3913 -6.11983 -26.319
ltibia 91.9818
lfoot -33.869 11.4443
ltoes -3.44742
67
root 9.57274 13.4106 -2.00821 28.5638 2.42995 3.08804
lowerback 31.5355 -3.08397 2.53877
upperback 11.0707 -3.10599 -0.92849
thorax -4.84977 -1.39412 -1.43379
lowerneck -10.2307 0.198526 -0.341833
upperneck -31.922 -0.364678 -2.4704
head -8.37834 0.0731825 -0.780898
rclavicle -9.34288e-015 -2.18663e-015
rhumerus -69.3777 -3.52487 -68.9407
rradius 22.6949
rwrist -14.1871
rhand -34.2307 27.5076
rfingers 7.12502
rthumb -7.40228 -2.34286
lclavicle -9.34288e-015 -2.18663e-015
lhumerus -77.9323 2.39952 67.0051
lradius 30.2438
lwrist 27.659
lhand -24.8501 16.1962
lfingers 7.12502
lthumb 1.65631 46.1695
rfemur -84.4071 0.0502586 19.4403
rtibia 96.6205
rfoot -35.3544 -8.59644
rtoes -2.96675
lfemur -81.8742 -6.20892 -26.145
ltibia 93.2736
lfoot -34.3658 11.5412
ltoes -4.0697
68
root 9.57309 13.3008 -1.97977 28.4215 2.38442 3.29658
lowerback 32.0227 -3.04443 2.29815
upperback 11.2296 -3.10643 -0.922529
thorax -4.87447 -1.39407 -1.2777
lowerneck -10.1495 0.240751 -0.396059
upperneck -32.1704 -0.321812 -2.5359
head -8.48235 0.110411 -0.798264
rclavicle -2.38542e-015 8.89561e-015
rhumerus -68.4892 -4.35083 -69.1274
rradius 22.0298
rwrist -14.3108
rhand -34.7054 26.5722
rfingers 7.12502
rthumb -7.86043 -3.26162
lclavicle -2.38542e-015 8.89561e-015
lhumerus -77.2325 3.47638 67.0226
lradius 30.4719
lwrist 27.1389
lhand -24.1979 15.7144
lfingers 7.12502
lthumb 2.28626 45.6819
rfemur -84.7292 0.0672921 19.2908
rtibia 97.875
rfoot -35.9889 -8.96251
rtoes -3.80772
lfemur -82.2032 -6.23312 -26.507
ltibia 94.4177
lfoot -34.738 11.5344
ltoes -4.27157
69
root 9.58039 13.1936 -1.95652 28.5472 2.11961 3.74542
lowerback 32.3337 -2.89263 1.86603
upperback 11.1918 -3.03713 -0.951788
thorax -5.03574 -1.36671 -1.07602
lowerneck -10.17 0.260158 -0.294021
upperneck -32.0689 -0.404915 -2.98157
head -8.44248 0.096076 -0.966699
rclavicle 4.96962e-016 8.89561e-015
rhumerus -67.3664 -5.34061 -69.174
rradius 20.9181
rwrist -13.648
rhand -36.3775 25.9341
rfingers 7.12502
rthumb -9.4741 -3.83291
lclavicle 4.96962e-016 8.89561e-015
lhumerus -76.3075 4.19672 67.5839
lradius 30.7697
lwrist 26.931
lhand -23.331 15.9826
lfingers 7.12502
lthumb 3.12341 45.9395
rfemur -85.345 0.0325222 18.8342
rtibia 98.9521
rfoot -36.3577 -9.46964
rtoes -5.60094
lfemur -82.7775 -6.33713 -27.1671
ltibia 95.4472
lfoot -35.1466 11.4886
ltoes -3.94557
